<svg xmlns="http://www.w3.org/2000/svg" viewBox="0 0 1600 980" preserveAspectRatio="xMidYMid slice">
<defs>
  <linearGradient id="bg" x1="0" y1="0" x2="1" y2="1">
    <stop offset="0%" stop-color="#19130f"/>
    <stop offset="45%" stop-color="#0d0a0a"/>
    <stop offset="100%" stop-color="#20160f"/>
  </linearGradient>
  <radialGradient id="gold" cx="50%" cy="10%" r="80%">
    <stop offset="0%" stop-color="#f4c15c" stop-opacity=".28"/>
    <stop offset="100%" stop-color="#f4c15c" stop-opacity="0"/>
  </radialGradient>
</defs>
<rect width="1600" height="980" fill="url(#bg)"/>
<rect width="1600" height="980" fill="url(#gold)"/>
<g opacity=".22" fill="#241913">
  <rect x="120" y="210" width="360" height="560" rx="18"/>
  <rect x="1120" y="190" width="320" height="560" rx="18"/>
  <rect x="530" y="160" width="520" height="620" rx="24"/>
</g>
<g opacity=".55" stroke="#8b5c2b" stroke-width="10">
  <rect x="170" y="250" width="260" height="320" rx="8"/>
  <rect x="1170" y="240" width="220" height="330" rx="8"/>
  <rect x="620" y="210" width="340" height="420" rx="10"/>
</g>
<g opacity=".65">
  <ellipse cx="810" cy="780" rx="210" ry="70" fill="#090808"/>
  <rect x="700" y="550" width="220" height="180" rx="38" fill="#2d1f16"/>
  <rect x="745" y="470" width="130" height="130" rx="48" fill="#322116"/>
  <rect x="680" y="450" width="260" height="34" rx="17" fill="#4a2f1c"/>
</g>
<g opacity=".6" fill="#dca53f">
  <circle cx="540" cy="325" r="16"/><circle cx="1060" cy="316" r="16"/>
  <circle cx="692" cy="293" r="10"/><circle cx="888" cy="295" r="10"/>
</g>
<g opacity=".35">
  <rect x="90" y="640" width="420" height="16" rx="8" fill="#5d3d22"/>
  <rect x="1080" y="640" width="360" height="16" rx="8" fill="#5d3d22"/>
  <rect x="510" y="650" width="580" height="18" rx="9" fill="#5d3d22"/>
</g>
</svg>